<svg width="20" height="20" viewBox="0 0 20 20" fill="none" xmlns="http://www.w3.org/2000/svg">
<path fill-rule="evenodd" clip-rule="evenodd" d="M10 4.0625C7.85812 4.0625 5.98983 4.1725 4.67735 4.2798C3.77861 4.35327 3.08174 5.04067 3.00119 5.93221C2.90388 7.00924 2.8125 8.43727 2.8125 10C2.8125 11.5627 2.90388 12.9908 3.00119 14.0678C3.08174 14.9593 3.77861 15.6467 4.67735 15.7202C5.98983 15.8275 7.85812 15.9375 10 15.9375C12.1421 15.9375 14.0105 15.8275 15.323 15.7202C16.2216 15.6467 16.9184 14.9595 16.9989 14.0682C17.0962 12.9916 17.1875 11.5639 17.1875 10C17.1875 8.43614 17.0962 7.00837 16.9989 5.9318C16.9184 5.04049 16.2216 4.3533 15.323 4.27983C14.0105 4.17252 12.1421 4.0625 10 4.0625ZM4.5755 3.03395C5.9136 2.92456 7.81674 2.8125 10 2.8125C12.1835 2.8125 14.0868 2.92458 15.4249 3.03398C16.9228 3.15645 18.108 4.31588 18.2438 5.81931C18.3435 6.92296 18.4375 8.38948 18.4375 10C18.4375 11.6105 18.3435 13.077 18.2438 14.1807C18.108 15.6841 16.9228 16.8436 15.4249 16.966C14.0868 17.0754 12.1835 17.1875 10 17.1875C7.81674 17.1875 5.9136 17.0754 4.5755 16.966C3.07738 16.8436 1.8921 15.6838 1.75626 14.1803C1.65651 13.0762 1.5625 11.6094 1.5625 10C1.5625 8.39058 1.65651 6.92379 1.75626 5.81973C1.8921 4.31616 3.07738 3.15643 4.5755 3.03395ZM5 8.4375C5 8.09232 5.27982 7.8125 5.625 7.8125H5.9375C6.28268 7.8125 6.5625 8.09232 6.5625 8.4375C6.5625 8.78268 6.28268 9.0625 5.9375 9.0625H5.625C5.27982 9.0625 5 8.78268 5 8.4375ZM7.5 8.4375C7.5 8.09232 7.77982 7.8125 8.125 7.8125H13.125C13.4702 7.8125 13.75 8.09232 13.75 8.4375C13.75 8.78268 13.4702 9.0625 13.125 9.0625H8.125C7.77982 9.0625 7.5 8.78268 7.5 8.4375ZM6.875 10.9375C6.52982 10.9375 6.25 11.2173 6.25 11.5625C6.25 11.9077 6.52982 12.1875 6.875 12.1875H7.1875C7.53268 12.1875 7.8125 11.9077 7.8125 11.5625C7.8125 11.2173 7.53268 10.9375 7.1875 10.9375H6.875ZM9.375 10.9375C9.02982 10.9375 8.75 11.2173 8.75 11.5625C8.75 11.9077 9.02982 12.1875 9.375 12.1875H14.375C14.7202 12.1875 15 11.9077 15 11.5625C15 11.2173 14.7202 10.9375 14.375 10.9375H9.375Z" fill="#999"/>
</svg>