<svg xmlns="http://www.w3.org/2000/svg" viewBox="0 0 22 22"><path d="M16.118 3.667h.382a3.667 3.667 0 013.667 3.667v7.333a3.667 3.667 0 01-3.667 3.667h-11a3.667 3.667 0 01-3.667-3.667V7.333A3.667 3.667 0 015.5 3.666h.382L4.95 2.053a1.1 1.1 0 011.906-1.1l1.567 2.714h5.156L15.146.953a1.101 1.101 0 011.906 1.1l-.934 1.614z" fill="#333" data-darkreader-inline-fill="" style="--darkreader-inline-fill:#c3beb7;"></path><path d="M5.561 5.194h10.878a2.2 2.2 0 012.2 2.2v7.211a2.2 2.2 0 01-2.2 2.2H5.561a2.2 2.2 0 01-2.2-2.2V7.394a2.2 2.2 0 012.2-2.2z" fill="#fff" data-darkreader-inline-fill="" style="--darkreader-inline-fill:#e1ded9;"></path><path d="M6.967 8.556a1.1 1.1 0 011.1 1.1v2.689a1.1 1.1 0 11-2.2 0V9.656a1.1 1.1 0 011.1-1.1zM15.033 8.556a1.1 1.1 0 011.1 1.1v2.689a1.1 1.1 0 11-2.2 0V9.656a1.1 1.1 0 011.1-1.1z" fill="#333" data-darkreader-inline-fill="" style="--darkreader-inline-fill:#c3beb7;"></path></svg>