<svg width="20" height="20" viewBox="0 0 20 20" fill="none" xmlns="http://www.w3.org/2000/svg">
<path fill-rule="evenodd" clip-rule="evenodd" d="M4.67735 4.2798C5.98983 4.1725 7.85812 4.0625 10 4.0625C12.1421 4.0625 14.0105 4.17252 15.323 4.27983C16.2216 4.3533 16.9184 5.04049 16.9989 5.9318C17.0962 7.00837 17.1875 8.43614 17.1875 10C17.1875 11.5639 17.0962 12.9916 16.9989 14.0682C16.9184 14.9595 16.2216 15.6467 15.323 15.7202C14.0105 15.8275 12.1421 15.9375 10 15.9375C7.85812 15.9375 5.98983 15.8275 4.67735 15.7202C3.77861 15.6467 3.08174 14.9593 3.00119 14.0678C2.90388 12.9908 2.8125 11.5627 2.8125 10C2.8125 8.43727 2.90388 7.00924 3.00119 5.93221C3.08174 5.04067 3.77861 4.35327 4.67735 4.2798ZM10 2.8125C7.81674 2.8125 5.9136 2.92456 4.5755 3.03395C3.07738 3.15643 1.8921 4.31616 1.75626 5.81973C1.65651 6.92379 1.5625 8.39058 1.5625 10C1.5625 11.6094 1.65651 13.0762 1.75626 14.1803C1.8921 15.6838 3.07738 16.8436 4.5755 16.966C5.9136 17.0754 7.81674 17.1875 10 17.1875C12.1835 17.1875 14.0868 17.0754 15.4249 16.966C16.9228 16.8436 18.108 15.6841 18.2438 14.1807C18.3435 13.077 18.4375 11.6105 18.4375 10C18.4375 8.38948 18.3435 6.92296 18.2438 5.81931C18.108 4.31588 16.9228 3.15645 15.4249 3.03398C14.0868 2.92458 12.1835 2.8125 10 2.8125ZM12.1876 10.722C12.7431 10.4013 12.7431 9.59941 12.1876 9.27866L9.06133 7.47373C8.50577 7.15298 7.81133 7.55392 7.81133 8.19542V11.8053C7.81133 12.4468 8.50577 12.8477 9.06133 12.527L12.1876 10.722Z" fill="#999"/>
</svg>