<svg xmlns="http://www.w3.org/2000/svg" data-pointer="none" viewBox="0 0 24 24" id="svgcontent" overflow="visible" width="24" height="24" x="597" y="286"><g class="layer" style="pointer-events:all"><title style="pointer-events:inherit">Layer 1</title><path fill-rule="evenodd" d="M11.99,4.83C11.52,4.83 11.01,4.83 10.47,4.84L8.76,2.27A1.01,1.01 0 0 0 7.09,3.39L8.08,4.89C7.4,4.91 6.68,4.93 5.92,4.96A4.01,4.01 0 0 0 2.09,8.4C1.93,9.55 1.85,10.94 1.85,12.58C1.85,14.55 1.96,16.25 2.2,17.7A4.01,4.01 0 0 0 5.96,21.06L6.86,21.11C8.07,21.17 8.67,21.2 10.47,21.2A0.99,0.99 0 0 0 10.47,19.23C8.71,19.23 8.13,19.2 6.97,19.14L6.06,19.09A2.04,2.04 0 0 1 4.15,17.38C3.93,16.06 3.82,14.46 3.82,12.58C3.82,11.02 3.9,9.72 4.05,8.68C4.19,7.7 5.01,6.97 5.99,6.93C8.43,6.85 10.46,6.8 12.05,6.8C13.65,6.8 15.67,6.85 18.12,6.93C19.08,6.97 19.83,7.74 19.97,8.75C20.05,9.27 20.09,10.71 20.11,11.81L20.11,11.81C20.12,12.16 20.13,12.46 20.14,12.69A0.99,0.99 0 1 0 22.11,12.63C22.1,12.4 22.1,12.1 22.09,11.77L22.09,11.74C22.06,10.62 22.01,9.08 21.93,8.47C21.65,6.56 20.14,5.03 18.19,4.96C17.29,4.93 16.44,4.9 15.66,4.88L16.71,3.42A1.01,1.01 0 0 0 15.07,2.24L13.21,4.83C12.83,4.83 12.46,4.83 12.12,4.83L11.99,4.83zM12.51,9.6L11.19,9.6L11.19,14.23L13.41,14.23L13.41,15.08L10.79,15.08L10.79,16.16L13.41,16.16L13.42,16.84C13.78,16.86 14.13,17 14.43,17.24L14.54,17.24L14.54,16.16L17.23,16.16L17.23,15.08L14.53,15.08L14.53,14.23L16.8,14.23L16.8,9.6L15.52,9.6A8.59,8.59 0 0 0 16.27,8.18L15.18,7.8A14.23,14.23 0 0 1 14.37,9.6L12.85,9.6L13.54,9.3A8.86,8.86 0 0 0 12.73,7.89L11.68,8.24C11.98,8.64 12.26,9.09 12.51,9.6zM8.33,13.17L8.48,11.68L10.46,11.68L10.46,8.29L7.26,8.29L7.26,9.27L9.33,9.27L9.33,10.7L7.47,10.7L7.16,14.16L9.44,14.16C9.44,15.32 9.4,16.08 9.32,16.43C9.24,16.79 8.94,16.96 8.39,16.96C8.08,16.96 7.77,16.94 7.48,16.91L7.78,17.97L7.84,17.98C8.13,18 8.39,18.02 8.66,18.02C9.66,17.95 10.22,17.6 10.35,16.96C10.46,16.32 10.53,15.06 10.53,13.17L8.33,13.17zM15.79,13.28L15.79,12.42L14.53,12.42L14.53,13.28L15.79,13.28zM13.41,12.42L13.41,13.28L12.21,13.28L12.21,12.42L13.41,12.42zM12.21,11.47L13.41,11.47L13.41,10.57L12.21,10.57L12.21,11.47zM14.53,11.47L14.53,10.57L15.79,10.57L15.79,11.47L14.53,11.47z" clip-rule="evenodd" id="svg_1"></path><path fill="#000000" fill-rule="evenodd" d="M22.85,14.63A1,1 0 0 0 21.43,14.7L16.34,20.41L14.13,18.13L14.03,18.04L14.02,18.04A1,1 0 0 0 12.7,19.53L15.66,22.57L15.76,22.66L15.76,22.66C16.17,22.98 16.76,22.93 17.12,22.54L22.93,16.03L23.01,15.93L23.01,15.92A1,1 0 0 0 22.85,14.63z" clip-rule="evenodd" id="svg_2"></path></g></svg>